<?xml version="1.0" encoding="UTF-8" standalone="no"?>
<!-- Created with Inkscape (http://www.inkscape.org/) -->

<svg
   width="1080"
   height="1080"
   viewBox="0 0 285.74999 285.75"
   version="1.1"
   id="svg5"
   inkscape:version="1.2 (dc2aedaf03, 2022-05-15)"
   sodipodi:docname="NINEKEYZ Logo Without Name.svg"
   xmlns:inkscape="http://www.inkscape.org/namespaces/inkscape"
   xmlns:sodipodi="http://sodipodi.sourceforge.net/DTD/sodipodi-0.dtd"
   xmlns="http://www.w3.org/2000/svg"
   xmlns:svg="http://www.w3.org/2000/svg">
  <sodipodi:namedview
     id="namedview7"
     pagecolor="#ffffff"
     bordercolor="#000000"
     borderopacity="0.25"
     inkscape:showpageshadow="2"
     inkscape:pageopacity="0.0"
     inkscape:pagecheckerboard="0"
     inkscape:deskcolor="#d1d1d1"
     inkscape:document-units="mm"
     showgrid="true"
     inkscape:zoom="0.35355339"
     inkscape:cx="486.48946"
     inkscape:cy="664.68037"
     inkscape:window-width="3840"
     inkscape:window-height="2137"
     inkscape:window-x="-8"
     inkscape:window-y="-8"
     inkscape:window-maximized="1"
     inkscape:current-layer="layer1">
    <inkscape:grid
       type="xygrid"
       id="grid8426"
       originx="0"
       originy="0" />
  </sodipodi:namedview>
  <defs
     id="defs2" />
  <g
     inkscape:label="Ebene 1"
     inkscape:groupmode="layer"
     id="layer1"
     transform="translate(23.283333)">
    <g
       id="g4107"
       transform="translate(-0.8623787)">
      <path
         id="rect5880-5-4-0"
         style="display:inline;fill:#ff6600;fill-opacity:1;stroke:none;stroke-width:0.799079;stroke-linejoin:miter;stroke-dasharray:1.59817, 1.59817;stroke-dashoffset:0"
         inkscape:label="Upper Logo 2"
         d="m 100.07628,10.461893 5.1e-4,5.17e-4 -61.503738,115.05292 h 11.375533 0.05943 56.885415 0.90486 10.44741 l -31.900372,-72.899937 -0.84749,1.939933 -4.599202,10.496 0.0067,0.0155 -0.836125,1.913062 h -0.0186 L 61.146868,110.24753 86.451788,78.543009 v 0.0026 l 5.1e-4,-0.001 15.463662,35.534261 H 54.98497 L 100.07834,10.461893 Z m -38.929929,99.786667 -0.001,0.002 h 0.0057 c -2.4e-5,-10e-6 -0.0046,-0.002 -0.0047,-0.002 z" />
      <path
         id="rect5880-5-4-9"
         style="fill:#ff6600;fill-opacity:1;stroke:none;stroke-width:1.57874;stroke-linejoin:miter;stroke-dasharray:3.1575, 3.1575;stroke-dashoffset:0"
         inkscape:label="Line"
         d="m 32.465719,137.42623 -6.432166,11.45253 h 141.232727 25.81858 15.35668 l 6.43217,-11.45253 h -21.78885 -25.81858 z" />
      <path
         id="rect5880-5-4-0-7"
         style="fill:#ff6600;fill-opacity:1;stroke:none;stroke-width:0.799079;stroke-linejoin:miter;stroke-dasharray:1.59817, 1.59817;stroke-dashoffset:0"
         inkscape:label="Lower Logo 2"
         d="m 140.38433,275.80365 -5.1e-4,-5.2e-4 61.50373,-115.05291 h -11.37553 -0.0594 -56.88541 -0.90486 -10.44742 l 31.90038,72.89993 0.84749,-1.93994 4.5992,-10.496 -0.007,-0.0155 0.83612,-1.91306 h 0.0186 l 18.90372,-43.26763 -25.30492,31.70451 v -0.003 l -5.1e-4,0.001 -15.46366,-35.53425 h 46.93099 l -45.09337,103.61737 z m 38.92992,-99.78666 0.001,-0.002 h -0.006 c 3e-5,10e-6 0.005,0.002 0.005,0.002 z" />
    </g>
    <path
       id="rect5880-5-4-0-5-5"
       style="display:none;fill:#ff6600;fill-opacity:1;stroke:none;stroke-width:0.799079;stroke-linejoin:miter;stroke-dasharray:1.59817, 1.59817;stroke-dashoffset:0"
       d="M 105.75779,11.260641 55.687428,126.31401 h 11.37638 0.0592 56.885342 0.90516 10.44702 l -31.90024,-72.899579 -0.84743,1.93966 -4.599415,10.49587 0.0067,0.0158 -0.836069,1.91301 h -0.01824 L 78.260338,111.04944 h 11.4356 L 99.19187,89.314901 h 0.01872 l 4.35658,-9.97126 15.46397,35.534249 H 72.100008 L 117.19339,11.260641 Z"
       inkscape:label="Upper Logo" />
    <path
       id="rect5880-5-4-0-5"
       style="display:none;fill:#ff6600;fill-opacity:1;stroke:none;stroke-width:0.799079;stroke-linejoin:miter;stroke-dasharray:1.59817, 1.59817;stroke-dashoffset:0"
       d="M 85.290167,275.53901 135.36053,160.48564 h -11.37638 -0.0592 -56.885337 -0.905169 -10.447016 l 31.900236,72.89958 0.847434,-1.93966 4.599415,-10.49587 -0.0067,-0.0158 0.836069,-1.91301 h 0.01824 l 18.905498,-43.27067 h -11.4356 l -9.495932,21.73454 h -0.01872 L 87.48079,207.45601 72.016818,171.92176 H 118.94795 L 73.854566,275.53901 Z"
       inkscape:label="Lower Logo" />
  </g>
</svg>
